<svg xmlns="http://www.w3.org/2000/svg" width="143" height="34" viewBox="0 0 143 34" fill="none"><mask id="mask0_1041_959" style="mask-type:luminance" maskUnits="userSpaceOnUse" x="0" y="0" width="143" height="34"><path d="M0 0H143V34H0V0Z" fill="white"></path></mask><g mask="url(#mask0_1041_959)"><path d="M61.792 12.2551H66.1424V14.1422H66.2254C67.2784 12.6594 68.6361 11.8507 70.6036 11.8507C73.707 11.8507 75.5358 14.0074 75.5358 17.0807V26.0581H71.0192V17.9705C71.0192 16.5146 70.2711 15.517 68.8025 15.517C67.3062 15.517 66.3086 16.7303 66.3086 18.4286V26.0581H61.792V12.2551Z" fill="#B7B7B7"></path><path d="M61.3005 8.56243C61.3005 7.10655 60.0874 5.92647 58.5911 5.92647C57.0949 5.92647 55.8818 7.10655 55.8818 8.56243C55.8818 10.0182 57.0949 11.1982 58.5911 11.1982C60.0874 11.1982 61.3005 10.0182 61.3005 8.56243Z" fill="#B7B7B7"></path><path d="M107.302 12.0558C107.173 12.0445 107.025 12.0395 106.852 12.0395C105.134 12.0395 103.971 12.7674 102.973 14.4119H102.89V12.2552H98.5674V26.0581H103.084V19.8576C103.084 16.9846 104.719 15.6533 107.302 15.8856V12.0558Z" fill="#B7B7B7"></path><path d="M129.467 17.3505C127.666 17.0271 126.059 16.8924 126.059 15.9219C126.059 15.0591 126.918 14.6548 128.026 14.6548C129.273 14.6548 130.132 15.0322 130.299 16.2723H134.455C134.233 13.5495 132.072 11.851 128.054 11.851C124.701 11.851 121.93 13.3607 121.93 16.2723C121.93 19.5072 124.563 20.1543 127.029 20.5588C128.913 20.8823 130.631 21.0171 130.631 22.2572C130.631 23.1469 129.772 23.6321 128.414 23.6321C127.052 23.6321 126.151 23.0714 125.875 21.9337H121.571C121.888 24.7713 124.448 26.4897 128.442 26.4897C132.155 26.4897 134.898 24.9262 134.898 21.9068C134.898 18.375 131.961 17.755 129.467 17.3505Z" fill="#B7B7B7"></path><path d="M114.308 14.9782C115.777 14.9782 116.83 16.0296 116.996 17.6743H111.399C111.703 16.0296 112.59 14.9782 114.308 14.9782ZM114.558 23.3085C112.701 23.3085 111.648 22.1494 111.371 20.2892H121.568C121.596 17.4855 120.765 15.0861 119.074 13.5765C117.855 12.4981 116.248 11.851 114.225 11.851C109.902 11.851 106.938 15.0052 106.938 19.13C106.938 23.3085 109.819 26.4629 114.502 26.4629C116.303 26.4629 117.744 26.0046 118.936 25.1958C120.183 24.3601 121.014 23.1739 121.319 21.9338H116.913C116.525 22.7965 115.749 23.3085 114.558 23.3085Z" fill="#B7B7B7"></path><path d="M142.852 22.8036C142.643 22.8116 142.362 22.8235 142.104 22.8235C141.134 22.8235 140.525 22.5538 140.525 21.4754V15.0052H142.852V12.2555H140.525V7.8881H136.119V12.2555H134.732V15.0052H136.119V22.419C136.119 25.3846 138.003 26.2202 140.635 26.2202C141.64 26.2202 142.399 26.147 142.852 26.061V22.8036Z" fill="#B7B7B7"></path><path d="M83.6022 22.8099C83.422 22.8167 83.214 22.8235 83.0197 22.8235C82.0501 22.8235 81.4403 22.5538 81.4403 21.4754V15.0052H83.6022V12.2555H81.4403V7.8881H77.0346V12.2555H75.5654V15.0052H77.0346V22.419C77.0346 25.3846 78.9187 26.2202 81.5512 26.2202C82.4419 26.2202 83.1393 26.1626 83.6022 26.0895V22.8099Z" fill="#B7B7B7"></path><path d="M93.4403 17.6743C93.2741 16.0298 92.221 14.9782 90.7524 14.9782C89.0345 14.9782 88.1478 16.0298 87.8429 17.6743H93.4403ZM83.3818 19.13C83.3818 15.0053 86.3467 11.8512 90.6694 11.8512C92.6921 11.8512 94.2993 12.4981 95.5185 13.5765C97.2088 15.0862 98.04 17.4855 98.0123 20.2893H87.8154C88.0923 22.1494 89.1453 23.3086 91.0019 23.3086C92.1933 23.3086 92.9693 22.7965 93.357 21.9338H97.7629C97.458 23.1739 96.6269 24.3601 95.3799 25.1959C94.1885 26.0046 92.7476 26.4629 90.9464 26.4629C86.2635 26.4629 83.3818 23.3086 83.3818 19.13Z" fill="#B7B7B7"></path><path d="M48.4887 15.8407C50.2621 15.8407 51.2596 14.8162 51.2596 13.2794C51.2596 11.7429 50.2343 10.7993 48.4887 10.7993H45.0248V15.8407H48.4887ZM40.4521 6.78242H48.2955C50.7061 6.78242 52.4795 7.42937 53.6987 8.56171C54.9734 9.72083 55.6939 11.3655 55.6939 13.3065C55.6939 16.9998 53.0614 19.615 48.9881 19.615H45.0248V26.0581H40.4521V6.78242Z" fill="#B7B7B7"></path><path d="M34.2518 16.9999C34.2518 26.1628 26.617 33.5908 17.1991 33.5908C7.78126 33.5908 0.146484 26.1628 0.146484 16.9999C0.146484 7.83691 7.78126 0.409 17.1991 0.409C26.617 0.409 34.2518 7.83691 34.2518 16.9999Z" fill="white"></path><path d="M17.1991 0.409C7.78126 0.409 0.146484 7.83705 0.146484 16.9999C0.146484 24.0287 4.64127 30.0373 10.9847 32.4547C10.8357 31.142 10.7009 29.1232 11.0438 27.6902C11.3537 26.3953 13.0435 19.4434 13.0435 19.4434C13.0435 19.4434 12.5334 18.4495 12.5334 16.9802C12.5334 14.6732 13.9078 12.9509 15.619 12.9509C17.0739 12.9509 17.7766 14.0136 17.7766 15.2879C17.7766 16.7115 16.8451 18.8397 16.3643 20.812C15.9626 22.4633 17.2155 23.81 18.8895 23.81C21.9204 23.81 24.2502 20.7007 24.2502 16.2126C24.2502 12.2402 21.3164 9.46279 17.1271 9.46279C12.2751 9.46279 9.42709 13.0035 9.42709 16.6628C9.42709 18.0887 9.99168 19.6178 10.6962 20.449C10.8356 20.6133 10.856 20.7572 10.8145 20.9249C10.685 21.4489 10.3973 22.5758 10.3409 22.8064C10.2665 23.1101 10.0937 23.1746 9.77054 23.0282C7.64078 22.0637 6.30918 19.0342 6.30918 16.6009C6.30918 11.3673 10.2176 6.56096 17.5765 6.56096C23.4921 6.56096 28.0892 10.6622 28.0892 16.1431C28.0892 21.861 24.3837 26.4627 19.2404 26.4627C17.5124 26.4627 15.8879 25.5893 15.3319 24.5576C15.3319 24.5576 14.4768 27.7253 14.2695 28.5016C13.8846 29.9426 12.8452 31.749 12.1501 32.851C13.7456 33.3316 15.4412 33.5908 17.1991 33.5908C26.6171 33.5908 34.2519 26.1628 34.2519 16.9999C34.2519 7.83705 26.6171 0.409 17.1991 0.409Z" fill="#B7B7B7"></path></g></svg>