<svg xmlns="http://www.w3.org/2000/svg" width="140" height="44" viewBox="0 0 140 44" fill="none"><g clip-path="url(#clip0_1041_947)"><path d="M17.5125 15.7V20.4H28.8206C28.5204 23 27.6197 25 26.2187 26.3C24.6176 27.9 22.0157 29.7 17.5125 29.7C10.6076 29.7 5.20372 24.1 5.20372 17.2C5.20372 10.3 10.5075 4.7 17.5125 4.7C21.2152 4.7 24.0172 6.2 26.0186 8.1L29.3209 4.8C26.5189 2.1 22.7162 0 17.5125 0C8.00572 0 0 7.7 0 17.2C0 26.7 8.00572 34.4 17.5125 34.4C22.6162 34.4 26.5189 32.7 29.5211 29.6C32.6233 26.5 33.624 22.1 33.624 18.6C33.624 17.5 33.524 16.5 33.4239 15.7H17.5125Z" fill="#B7B7B7"></path><path d="M47.6338 11.7998C41.5294 11.7998 36.4258 16.4998 36.4258 22.8998C36.4258 29.2998 41.4294 33.9998 47.6338 33.9998C53.8382 33.9998 58.8418 29.3998 58.8418 22.9998C58.8418 16.4998 53.8382 11.7998 47.6338 11.7998ZM47.6338 29.6998C44.2314 29.6998 41.3293 26.8998 41.3293 22.9998C41.3293 18.9998 44.2314 16.2998 47.6338 16.2998C51.0362 16.2998 53.9383 18.9998 53.9383 22.9998C53.9383 26.8998 51.0362 29.6998 47.6338 29.6998Z" fill="#B7B7B7"></path><path d="M102.373 14.2998H102.173C101.072 12.9998 98.9707 11.7998 96.2688 11.7998C90.6648 11.7998 85.8613 16.5998 85.8613 22.8998C85.8613 29.0998 90.6648 33.9998 96.2688 33.9998C98.9707 33.9998 101.072 32.7998 102.173 31.4998H102.373V33.0998C102.373 37.2998 100.071 39.5998 96.4689 39.5998C93.4668 39.5998 91.6655 37.4998 90.8649 35.5998L86.6619 37.3998C87.8628 40.2998 91.1651 43.9998 96.569 43.9998C102.273 43.9998 107.177 40.5998 107.177 32.3998V12.3998H102.573V14.2998H102.373ZM96.7691 29.6998C93.3667 29.6998 90.8649 26.7998 90.8649 22.9998C90.8649 19.0998 93.4668 16.2998 96.7691 16.2998C100.071 16.2998 102.673 19.1998 102.673 23.0998C102.773 26.8998 100.172 29.6998 96.7691 29.6998Z" fill="#B7B7B7"></path><path d="M72.5518 11.7998C66.4474 11.7998 61.3438 16.4998 61.3438 22.8998C61.3438 29.2998 66.3473 33.9998 72.5518 33.9998C78.7562 33.9998 83.7598 29.3998 83.7598 22.9998C83.7598 16.4998 78.7562 11.7998 72.5518 11.7998ZM72.5518 29.6998C69.1493 29.6998 66.2473 26.8998 66.2473 22.9998C66.2473 18.9998 69.1493 16.2998 72.5518 16.2998C75.9542 16.2998 78.8563 18.9998 78.8563 22.9998C78.8563 26.8998 75.9542 29.6998 72.5518 29.6998Z" fill="#B7B7B7"></path><path d="M110.879 0.5H115.682V34.1H110.879V0.5Z" fill="#B7B7B7"></path><path d="M130.493 29.6998C127.991 29.6998 126.29 28.5998 125.089 26.2998L140 20.1998L139.5 18.8998C138.599 16.3998 135.697 11.7998 129.993 11.7998C124.289 11.7998 119.485 16.2998 119.485 22.8998C119.485 29.0998 124.189 33.9998 130.493 33.9998C135.597 33.9998 138.499 30.8998 139.8 29.0998L135.997 26.5998C134.696 28.4998 132.995 29.6998 130.493 29.6998ZM130.193 15.9998C132.194 15.9998 133.896 16.9998 134.396 18.3998L124.389 22.5998C124.289 17.9998 127.691 15.9998 130.193 15.9998Z" fill="#B7B7B7"></path></g><defs><clipPath id="clip0_1041_947"><rect width="140" height="44" fill="white"></rect></clipPath></defs></svg>