<svg xmlns="http://www.w3.org/2000/svg" width="131" height="40" viewBox="0 0 131 40" fill="none"><g clip-path="url(#clip0_1041_935)"><path d="M31.7792 17.8202C25.5417 14.1435 15.2532 13.8054 9.29875 15.5992C8.34252 15.8871 7.33141 15.3513 7.04167 14.4022C6.75193 13.4527 7.29115 12.4497 8.24801 12.1611C15.0833 10.1015 26.4459 10.4995 33.6266 14.7304C34.4869 15.2371 34.769 16.3396 34.2591 17.1921C33.7489 18.0456 32.6372 18.327 31.7792 17.8202ZM31.575 23.2661C31.1376 23.971 30.2091 24.1919 29.5 23.7593C24.2998 20.5865 16.3701 19.6674 10.2179 21.5209C9.42006 21.7603 8.57738 21.3138 8.33512 20.5233C8.09465 19.7314 8.5447 18.8965 9.34108 18.6557C16.3692 16.5389 25.106 17.5642 31.0786 21.2075C31.7878 21.6409 32.011 22.563 31.575 23.2661ZM29.2072 28.4962C28.8597 29.0621 28.117 29.2395 27.549 28.8946C23.0049 26.138 17.2855 25.5153 10.5499 27.0425C9.90069 27.1903 9.25388 26.7864 9.10576 26.1423C8.95712 25.4981 9.36229 24.8561 10.0129 24.7091C17.3839 23.0365 23.7068 23.7564 28.8072 26.8499C29.3759 27.1946 29.555 27.932 29.2072 28.4962ZM20.3329 0.792801C9.64616 0.792801 0.982422 9.39188 0.982422 19.9996C0.982422 30.6082 9.64616 39.207 20.3329 39.207C31.0202 39.207 39.6834 30.6082 39.6834 19.9996C39.6834 9.39188 31.0202 0.792801 20.3329 0.792801Z" fill="#B7B7B7"></path><path d="M53.6281 18.524C50.2871 17.7332 49.6921 17.1781 49.6921 16.0121C49.6921 14.91 50.7374 14.1687 52.2916 14.1687C53.7982 14.1687 55.2918 14.7318 56.8582 15.891C56.9056 15.9261 56.965 15.9401 57.0234 15.9309C57.0819 15.9222 57.1334 15.8905 57.1678 15.8424L58.7992 13.5598C58.8662 13.466 58.8479 13.3362 58.7576 13.2644C56.8935 11.7798 54.7945 11.058 52.341 11.058C48.7336 11.058 46.2138 13.2066 46.2138 16.2814C46.2138 19.5785 48.3874 20.7458 52.1437 21.6469C55.3408 22.3779 55.8803 22.9902 55.8803 24.0851C55.8803 25.2981 54.7892 26.0523 53.0333 26.0523C51.0833 26.0523 49.4924 25.4002 47.7129 23.8706C47.6688 23.833 47.6083 23.8156 47.5524 23.8187C47.4937 23.8236 47.4398 23.8506 47.4024 23.8953L45.5732 26.0561C45.4965 26.1458 45.5062 26.2797 45.5947 26.3572C47.6653 28.1919 50.2115 29.1611 52.9594 29.1611C56.8466 29.1611 59.3586 27.0527 59.3586 23.7896C59.3586 21.0318 57.6986 19.5067 53.6281 18.524Z" fill="#B7B7B7"></path><path d="M70.9758 22.2205C70.9758 24.5492 69.5307 26.1741 67.4615 26.1741C65.4158 26.1741 63.8728 24.4754 63.8728 22.2205C63.8728 19.9659 65.4158 18.2669 67.4615 18.2669C69.4974 18.2669 70.9758 19.9292 70.9758 22.2205ZM68.154 15.2537C66.469 15.2537 65.087 15.9125 63.9474 17.2622V15.743C63.9474 15.623 63.8494 15.5253 63.7286 15.5253H60.7371C60.6163 15.5253 60.5186 15.623 60.5186 15.743V32.6242C60.5186 32.7441 60.6163 32.8418 60.7371 32.8418H63.7286C63.8494 32.8418 63.9474 32.7441 63.9474 32.6242V27.2957C65.0872 28.5654 66.4695 29.1856 68.154 29.1856C71.2848 29.1856 74.4541 26.7934 74.4541 22.2205C74.4541 17.6466 71.2848 15.2537 68.154 15.2537Z" fill="#B7B7B7"></path><path d="M82.5774 26.1983C80.4328 26.1983 78.816 24.488 78.816 22.2203C78.816 19.9431 80.3769 18.2906 82.5279 18.2906C84.6863 18.2906 86.314 20.0008 86.314 22.27C86.314 24.547 84.7425 26.1983 82.5774 26.1983ZM82.5774 15.2536C78.5454 15.2536 75.3867 18.3353 75.3867 22.27C75.3867 26.162 78.5237 29.2114 82.5279 29.2114C86.5742 29.2114 89.7426 26.1401 89.7426 22.2203C89.7426 18.3137 86.5959 15.2536 82.5774 15.2536Z" fill="#B7B7B7"></path><path d="M98.353 15.5253H95.061V12.1845C95.061 12.0646 94.9634 11.9671 94.8426 11.9671H91.8514C91.7303 11.9671 91.6319 12.0646 91.6319 12.1845V15.5253H90.1935C90.0729 15.5253 89.9756 15.623 89.9756 15.743V18.295C89.9756 18.4149 90.0729 18.5125 90.1935 18.5125H91.6319V25.1161C91.6319 27.7848 92.97 29.1377 95.6091 29.1377C96.6821 29.1377 97.5725 28.9177 98.4115 28.4455C98.4796 28.4077 98.5221 28.3348 98.5221 28.2572V25.827C98.5221 25.7519 98.4826 25.6813 98.4182 25.6419C98.353 25.6013 98.2719 25.5992 98.2051 25.632C97.6288 25.9198 97.0717 26.0526 96.449 26.0526C95.4894 26.0526 95.061 25.6203 95.061 24.6508V18.5125H98.353C98.4738 18.5125 98.5711 18.4149 98.5711 18.295V15.743C98.5711 15.623 98.4738 15.5253 98.353 15.5253Z" fill="#B7B7B7"></path><path d="M109.822 15.538V15.1277C109.822 13.9206 110.289 13.3823 111.334 13.3823C111.958 13.3823 112.459 13.5052 113.02 13.691C113.089 13.7125 113.161 13.7018 113.217 13.6607C113.275 13.6197 113.308 13.5538 113.308 13.4841V10.9818C113.308 10.8862 113.246 10.8015 113.153 10.7736C112.56 10.5986 111.802 10.4187 110.667 10.4187C107.903 10.4187 106.443 11.9632 106.443 14.8836V15.5121H105.006C104.885 15.5121 104.786 15.6096 104.786 15.7295V18.2946C104.786 18.4145 104.885 18.5121 105.006 18.5121H106.443V28.6978C106.443 28.8178 106.54 28.9153 106.661 28.9153H109.652C109.773 28.9153 109.872 28.8178 109.872 28.6978V18.5121H112.665L116.944 28.6952C116.458 29.7651 115.98 29.978 115.328 29.978C114.801 29.978 114.246 29.8217 113.679 29.5135C113.625 29.4843 113.562 29.4795 113.504 29.4972C113.447 29.5174 113.399 29.5594 113.375 29.6147L112.361 31.8227C112.313 31.9269 112.354 32.0495 112.455 32.1036C113.514 32.6726 114.469 32.9155 115.65 32.9155C117.859 32.9155 119.08 31.894 120.157 29.1463L125.347 15.8343C125.373 15.7674 125.365 15.6919 125.324 15.6323C125.282 15.5736 125.216 15.538 125.144 15.538H122.029C121.936 15.538 121.852 15.5967 121.822 15.6836L118.632 24.7291L115.137 15.6777C115.105 15.5935 115.024 15.538 114.933 15.538H109.822Z" fill="#B7B7B7"></path><path d="M103.174 15.5252H100.182C100.061 15.5252 99.9629 15.6229 99.9629 15.7428V28.6981C99.9629 28.8181 100.061 28.9155 100.182 28.9155H103.174C103.294 28.9155 103.393 28.8181 103.393 28.6981V15.7428C103.393 15.6229 103.294 15.5252 103.174 15.5252Z" fill="#B7B7B7"></path><path d="M101.693 9.62608C100.508 9.62608 99.5459 10.5786 99.5459 11.7547C99.5459 12.9318 100.508 13.8853 101.693 13.8853C102.877 13.8853 103.838 12.9318 103.838 11.7547C103.838 10.5786 102.877 9.62608 101.693 9.62608Z" fill="#B7B7B7"></path><path d="M128.024 16.8138H127.476V17.5076H128.024C128.297 17.5076 128.461 17.3747 128.461 17.1605C128.461 16.9348 128.297 16.8138 128.024 16.8138ZM128.379 17.8035L128.974 18.6312H128.472L127.936 17.872H127.476V18.6312H127.055V16.4375H128.041C128.554 16.4375 128.892 16.6983 128.892 17.1372C128.892 17.4967 128.682 17.7165 128.379 17.8035ZM127.912 15.7077C126.834 15.7077 126.018 16.5583 126.018 17.6005C126.018 18.6419 126.828 19.4814 127.901 19.4814C128.979 19.4814 129.796 18.6312 129.796 17.5886C129.796 16.5471 128.985 15.7077 127.912 15.7077ZM127.901 19.6904C126.717 19.6904 125.796 18.7466 125.796 17.6005C125.796 16.4542 126.729 15.4996 127.912 15.4996C129.096 15.4996 130.018 16.4434 130.018 17.5886C130.018 18.7348 129.085 19.6904 127.901 19.6904Z" fill="#B7B7B7"></path></g><defs><clipPath id="clip0_1041_935"><rect width="131" height="39" fill="white" transform="translate(0 0.5)"></rect></clipPath></defs></svg>